<?xml version="1.0" encoding="utf-8" ?>
<svg baseProfile="full" height="100%" version="1.1" viewBox="0 0 530.0 457.0" width="100%" xmlns="http://www.w3.org/2000/svg" xmlns:ev="http://www.w3.org/2001/xml-events" xmlns:xlink="http://www.w3.org/1999/xlink">
  <defs>
    <marker id="id4" markerHeight="6" markerUnits="userSpaceOnUse" markerWidth="9" orient="auto" refX="4.5" refY="3.0">
      <polyline fill="black" points="0,0 9,3.0 0,6" stroke-width="0"/>
    </marker>
    <marker id="id5" markerHeight="6" markerUnits="userSpaceOnUse" markerWidth="9" orient="auto" refX="4.5" refY="3.0">
      <polyline fill="red" points="0,0 9,3.0 0,6" stroke-width="0"/>
    </marker>
  </defs>
  <rect fill="white" height="457.0" width="530.0" x="0.0" y="0.0"/>
  <rect fill="none" height="457.0" stroke="black" stroke-width="0.0" width="530.0" x="0.0" y="0.0"/>
  <rect fill="papayawhip" height="287.25" width="266.0" x="132.0" y="85.75"/>
  <rect fill="none" height="285.25" stroke="black" stroke-width="2.0" width="264.0" x="133.0" y="86.75"/>
  <rect fill="#FFB" height="167.625" width="198.0" x="166.0" y="187.375"/>
  <rect fill="none" height="165.625" stroke="black" stroke-width="2.0" width="196.0" x="167.0" y="188.375"/>
  <rect fill="lightskyblue" height="48.0" width="120.0" x="210.0" y="115.375"/>
  <rect fill="none" height="47.0" stroke="black" stroke-width="1.0" width="119.0" x="210.5" y="115.875"/>
  <rect fill="lightskyblue" height="48.0" width="120.0" x="210.0" y="217.0"/>
  <rect fill="none" height="47.0" stroke="black" stroke-width="1.0" width="119.0" x="210.5" y="217.5"/>
  <rect fill="lightskyblue" height="48.0" width="120.0" x="210.0" y="289.0"/>
  <rect fill="none" height="47.0" stroke="black" stroke-width="1.0" width="119.0" x="210.5" y="289.5"/>
  <rect fill="lightskyblue" height="48.0" width="120.0" x="210.0" y="397.0"/>
  <rect fill="none" height="47.0" stroke="black" stroke-width="1.0" width="119.0" x="210.5" y="397.5"/>
  <rect fill="lightskyblue" height="48.0" width="72.0" x="36.0" y="289.0"/>
  <rect fill="none" height="47.0" stroke="black" stroke-width="1.0" width="71.0" x="36.5" y="289.5"/>
  <rect fill="lightskyblue" height="48.0" width="72.0" x="422.0" y="289.0"/>
  <rect fill="none" height="47.0" stroke="black" stroke-width="1.0" width="71.0" x="422.5" y="289.5"/>
  <rect fill="none" height="10.0" width="0.0" x="12.0" y="313.0"/>
  <rect fill="none" height="8.0" stroke="black" stroke-width="2.0" width="-2.0" x="13.0" y="314.0"/>
  <rect fill="none" height="10.0" width="0.0" x="518.0" y="313.0"/>
  <rect fill="none" height="8.0" stroke="black" stroke-width="2.0" width="-2.0" x="519.0" y="314.0"/>
  <polyline fill="none" points="210.0,416.0 189.0,416.0 189.0,328.0 202.0,328.0" stroke="#EEE" stroke-width="4.0"/>
  <polyline fill="none" points="210.0,416.0 189.0,416.0 189.0,328.0 202.0,328.0" stroke="black" stroke-width="2.0"/>
  <polyline marker-end="url(#id4)" points="201.0,328.0 205.5,328.0" stroke="black" stroke-width="0"/>
  <polyline fill="none" points="330.0,328.0 351.0,328.0 351.0,416.0 338.0,416.0" stroke="#EEE" stroke-width="4.0"/>
  <polyline fill="none" points="330.0,328.0 351.0,328.0 351.0,416.0 338.0,416.0" stroke="black" stroke-width="2.0"/>
  <polyline marker-end="url(#id4)" points="339.0,416.0 334.5,416.0" stroke="black" stroke-width="0"/>
  <polyline fill="none" points="210.0,246.0 189.0,246.0 189.0,298.0 202.0,298.0" stroke="#EEE" stroke-width="4.0"/>
  <polyline fill="none" points="210.0,246.0 189.0,246.0 189.0,298.0 202.0,298.0" stroke="black" stroke-width="2.0"/>
  <polyline marker-end="url(#id4)" points="201.0,298.0 205.5,298.0" stroke="black" stroke-width="0"/>
  <polyline fill="none" points="330.0,308.0 351.0,308.0 351.0,246.0 338.0,246.0" stroke="#EEE" stroke-width="4.0"/>
  <polyline fill="none" points="330.0,308.0 351.0,308.0 351.0,246.0 338.0,246.0" stroke="black" stroke-width="2.0"/>
  <polyline marker-end="url(#id4)" points="339.0,246.0 334.5,246.0" stroke="black" stroke-width="0"/>
  <polyline fill="none" points="12.0,318.0 28.0,318.0" stroke="#EEE" stroke-width="4.0"/>
  <polyline fill="none" points="12.0,318.0 28.0,318.0" stroke="black" stroke-width="2.0"/>
  <polyline marker-end="url(#id4)" points="27.0,318.0 31.5,318.0" stroke="black" stroke-width="0"/>
  <polyline fill="none" points="108.0,318.0 202.0,318.0" stroke="#EEE" stroke-width="4.0"/>
  <polyline fill="none" points="108.0,318.0 202.0,318.0" stroke="black" stroke-width="2.0"/>
  <polyline marker-end="url(#id4)" points="201.0,318.0 205.5,318.0" stroke="black" stroke-width="0"/>
  <polyline fill="none" points="330.0,318.0 414.0,318.0" stroke="#EEE" stroke-width="4.0"/>
  <polyline fill="none" points="330.0,318.0 414.0,318.0" stroke="black" stroke-width="2.0"/>
  <polyline marker-end="url(#id4)" points="413.0,318.0 417.5,318.0" stroke="black" stroke-width="0"/>
  <polyline fill="none" points="494.0,318.0 510.0,318.0" stroke="#EEE" stroke-width="4.0"/>
  <polyline fill="none" points="494.0,318.0 510.0,318.0" stroke="black" stroke-width="2.0"/>
  <polyline marker-end="url(#id4)" points="509.0,318.0 513.5,318.0" stroke="black" stroke-width="0"/>
  <polyline fill="none" points="330.0,426.0 385.0,426.0 385.0,144.375 338.0,144.375" stroke="#EEE" stroke-width="4.0"/>
  <polyline fill="none" points="330.0,426.0 385.0,426.0 385.0,144.375 338.0,144.375" stroke="black" stroke-width="2.0"/>
  <polyline marker-end="url(#id4)" points="339.0,144.375 334.5,144.375" stroke="black" stroke-width="0"/>
  <polyline fill="none" points="72.0,281.0 72.0,124.375 202.0,124.375" stroke="#EEE" stroke-width="4.0"/>
  <polyline fill="none" points="72.0,281.0 72.0,124.375 202.0,124.375" stroke="red" stroke-width="2.0"/>
  <polyline marker-end="url(#id5)" points="72.0,280.0 72.0,284.5" stroke="red" stroke-width="0"/>
  <polyline marker-end="url(#id5)" points="201.0,124.375 205.5,124.375" stroke="red" stroke-width="0"/>
  <polyline fill="none" points="202.0,426.0 145.0,426.0 145.0,134.375 202.0,134.375" stroke="#EEE" stroke-width="4.0"/>
  <polyline fill="none" points="202.0,426.0 145.0,426.0 145.0,134.375 202.0,134.375" stroke="red" stroke-width="2.0"/>
  <polyline marker-end="url(#id5)" points="201.0,426.0 205.5,426.0" stroke="red" stroke-width="0"/>
  <polyline marker-end="url(#id5)" points="201.0,134.375 205.5,134.375" stroke="red" stroke-width="0"/>
  <polyline fill="none" points="202.0,308.0 179.0,308.0 179.0,144.375 202.0,144.375" stroke="#EEE" stroke-width="4.0"/>
  <polyline fill="none" points="202.0,308.0 179.0,308.0 179.0,144.375 202.0,144.375" stroke="red" stroke-width="2.0"/>
  <polyline marker-end="url(#id5)" points="201.0,308.0 205.5,308.0" stroke="red" stroke-width="0"/>
  <polyline marker-end="url(#id5)" points="201.0,144.375 205.5,144.375" stroke="red" stroke-width="0"/>
  <polyline fill="none" points="202.0,236.0 189.0,236.0 189.0,154.375 202.0,154.375" stroke="#EEE" stroke-width="4.0"/>
  <polyline fill="none" points="202.0,236.0 189.0,236.0 189.0,154.375 202.0,154.375" stroke="red" stroke-width="2.0"/>
  <polyline marker-end="url(#id5)" points="201.0,236.0 205.5,236.0" stroke="red" stroke-width="0"/>
  <polyline marker-end="url(#id5)" points="201.0,154.375 205.5,154.375" stroke="red" stroke-width="0"/>
  <polyline fill="none" points="458.0,281.0 458.0,134.375 338.0,134.375" stroke="#EEE" stroke-width="4.0"/>
  <polyline fill="none" points="458.0,281.0 458.0,134.375 338.0,134.375" stroke="red" stroke-width="2.0"/>
  <polyline marker-end="url(#id5)" points="458.0,280.0 458.0,284.5" stroke="red" stroke-width="0"/>
  <polyline marker-end="url(#id5)" points="339.0,134.375 334.5,134.375" stroke="red" stroke-width="0"/>
  <text transform="translate(265.0,99.5625) translate(0,-0.0)">
    <tspan dominant-baseline="middle" dx="0" fill="black" font-family="Arial" font-size="10.0pt" text-anchor="middle" x="0">CPU</tspan>
  </text>
  <text transform="translate(265.0,201.1875) translate(0,-0.0)">
    <tspan dominant-baseline="middle" dx="0" fill="black" font-family="Arial" font-size="10.0pt" text-anchor="middle" x="0">Processor</tspan>
  </text>
  <text transform="translate(270.0,139.375) translate(0,-7.8125)">
    <tspan dominant-baseline="middle" dx="0" fill="black" font-family="Arial" font-size="10.0pt" text-anchor="middle" x="0">Control</tspan>
    <tspan dominant-baseline="middle" dx="0" dy="1.25em" fill="black" font-family="Arial" font-size="10.0pt" text-anchor="middle" x="0">Unit</tspan>
  </text>
  <text transform="translate(270.0,241.0) translate(0,-0.0)">
    <tspan dominant-baseline="middle" dx="0" fill="black" font-family="Arial" font-size="10.0pt" text-anchor="middle" x="0">Registers</tspan>
  </text>
  <text transform="translate(270.0,313.0) translate(0,-7.8125)">
    <tspan dominant-baseline="middle" dx="0" fill="black" font-family="Arial" font-size="10.0pt" text-anchor="middle" x="0">Combinational</tspan>
    <tspan dominant-baseline="middle" dx="0" dy="1.25em" fill="black" font-family="Arial" font-size="10.0pt" text-anchor="middle" x="0">Logic</tspan>
  </text>
  <text transform="translate(270.0,421.0) translate(0,-7.8125)">
    <tspan dominant-baseline="middle" dx="0" fill="black" font-family="Arial" font-size="10.0pt" text-anchor="middle" x="0">Main</tspan>
    <tspan dominant-baseline="middle" dx="0" dy="1.25em" fill="black" font-family="Arial" font-size="10.0pt" text-anchor="middle" x="0">Memory</tspan>
  </text>
  <text transform="translate(72.0,313.0) translate(0,-0.0)">
    <tspan dominant-baseline="middle" dx="0" fill="black" font-family="Arial" font-size="10.0pt" text-anchor="middle" x="0">Input</tspan>
  </text>
  <text transform="translate(458.0,313.0) translate(0,-0.0)">
    <tspan dominant-baseline="middle" dx="0" fill="black" font-family="Arial" font-size="10.0pt" text-anchor="middle" x="0">Output</tspan>
  </text>
  <text transform="translate(265.0,27.875) translate(0,-10.9375)">
    <tspan dominant-baseline="middle" dx="0" fill="black" font-family="Arial" font-size="14.0pt" text-anchor="middle" x="0">Computer Architecture</tspan>
    <tspan dominant-baseline="middle" dx="0" dy="1.25em" fill="black" font-family="Arial" font-size="14.0pt" text-anchor="middle" x="0">(https://en.wikipedia.org/wiki/Computer_architecture)</tspan>
  </text>
</svg>
