<?xml version="1.0" encoding="utf-8" ?>
<svg xmlns="http://www.w3.org/2000/svg" xmlns:ev="http://www.w3.org/2001/xml-events" xmlns:xlink="http://www.w3.org/1999/xlink" baseProfile="full" height="100%" version="1.1" viewBox="0 0 864.0 636.875" width="100%">
  <defs>
    <marker id="id1" markerHeight="9.0" markerUnits="userSpaceOnUse" markerWidth="13.5" orient="auto" refX="6.75" refY="4.5">
      <polyline fill="turquoise" points="0,0 13.5,4.5 0,9.0" stroke-width="0"/>
    </marker>
    <marker id="id2" markerHeight="9.0" markerUnits="userSpaceOnUse" markerWidth="13.5" orient="auto" refX="6.75" refY="4.5">
      <polyline fill="olive" points="0,0 13.5,4.5 0,9.0" stroke-width="0"/>
    </marker>
    <marker id="id3" markerHeight="9.0" markerUnits="userSpaceOnUse" markerWidth="13.5" orient="auto" refX="6.75" refY="4.5">
      <polyline fill="orangered" points="0,0 13.5,4.5 0,9.0" stroke-width="0"/>
    </marker>
    <marker id="id4" markerHeight="14.0" markerUnits="userSpaceOnUse" markerWidth="21.0" orient="auto" refX="10.5" refY="7.0">
      <polyline fill="dimgrey" points="0,0 21.0,7.0 0,14.0" stroke-width="0"/>
    </marker>
    <marker id="id5" markerHeight="9.0" markerUnits="userSpaceOnUse" markerWidth="13.5" orient="auto" refX="6.75" refY="4.5">
      <polyline fill="grey" points="0,0 13.5,4.5 0,9.0" stroke-width="0"/>
    </marker>
    <marker id="id6" markerHeight="9.0" markerUnits="userSpaceOnUse" markerWidth="13.5" orient="auto" refX="6.75" refY="4.5">
      <polyline fill="royalblue" points="0,0 13.5,4.5 0,9.0" stroke-width="0"/>
    </marker>
    <marker id="id7" markerHeight="9.0" markerUnits="userSpaceOnUse" markerWidth="13.5" orient="auto" refX="6.75" refY="4.5">
      <polyline fill="black" points="0,0 13.5,4.5 0,9.0" stroke-width="0"/>
    </marker>
  </defs>
  <rect fill="lightyellow" height="636.875" width="864.0" x="0" y="0"/>
  <rect fill="none" height="636.875" stroke="black" stroke-width="0.0" width="864.0" x="0.0" y="0.0"/>
  <rect fill="white" height="48.0" stroke="black" stroke-width="2.0" width="96.0" x="270.0" y="51.875"/>
  <text transform="translate(318.0,75.875) translate(0,-0.0)">
    <tspan dominant-baseline="middle" dx="0" fill="black" font-size="10.0pt" text-anchor="middle" x="0">Fuel</tspan>
  </text>
  <rect fill="white" height="48.0" stroke="black" stroke-width="2.0" width="96.0" x="111.0" y="159.875"/>
  <text transform="translate(159.0,183.875) translate(0,-0.0)">
    <tspan dominant-baseline="middle" dx="0" fill="black" font-size="10.0pt" text-anchor="middle" x="0">Compressor</tspan>
  </text>
  <rect fill="gold" height="48.0" stroke="orangered" stroke-width="2.0" width="96.0" x="270.0" y="159.875"/>
  <text transform="translate(318.0,183.875) translate(0,-7.8125)">
    <tspan dominant-baseline="middle" dx="0" fill="black" font-size="10.0pt" text-anchor="middle" x="0">Combustion</tspan>
    <tspan dominant-baseline="middle" dx="0" dy="1.25em" fill="black" font-size="10.0pt" text-anchor="middle" x="0">Chamber</tspan>
  </text>
  <rect fill="gold" height="48.0" stroke="orangered" stroke-width="2.0" width="96.0" x="429.0" y="159.875"/>
  <text transform="translate(477.0,183.875) translate(0,-0.0)">
    <tspan dominant-baseline="middle" dx="0" fill="black" font-size="10.0pt" text-anchor="middle" x="0">Gas Turbine</tspan>
  </text>
  <rect fill="white" height="48.0" stroke="black" stroke-width="2.0" width="96.0" x="585.0" y="159.875"/>
  <text transform="translate(633.0,183.875) translate(0,-7.8125)">
    <tspan dominant-baseline="middle" dx="0" fill="black" font-size="10.0pt" text-anchor="middle" x="0">Electrical</tspan>
    <tspan dominant-baseline="middle" dx="0" dy="1.25em" fill="black" font-size="10.0pt" text-anchor="middle" x="0">Generator</tspan>
  </text>
  <rect fill="white" height="9.0" stroke="none" stroke-width="2.0" width="24.0" x="24.0" y="270.875"/>
  <text transform="translate(36.0,275.375) translate(0,-0.0)">
    <tspan dominant-baseline="middle" dx="0" fill="black" font-size="10.0pt" text-anchor="middle" x="0">Air</tspan>
  </text>
  <rect fill="white" height="48.0" stroke="black" stroke-width="2.0" width="96.0" x="111.0" y="345.875"/>
  <text transform="translate(159.0,369.875) translate(0,-0.0)">
    <tspan dominant-baseline="middle" dx="0" fill="black" font-size="10.0pt" text-anchor="middle" x="0">Compressor</tspan>
  </text>
  <rect fill="gold" height="48.0" stroke="orangered" stroke-width="2.0" width="96.0" x="270.0" y="345.875"/>
  <text transform="translate(318.0,369.875) translate(0,-7.8125)">
    <tspan dominant-baseline="middle" dx="0" fill="black" font-size="10.0pt" text-anchor="middle" x="0">Combustion</tspan>
    <tspan dominant-baseline="middle" dx="0" dy="1.25em" fill="black" font-size="10.0pt" text-anchor="middle" x="0">Chamber</tspan>
  </text>
  <rect fill="gold" height="48.0" stroke="orangered" stroke-width="2.0" width="96.0" x="429.0" y="345.875"/>
  <text transform="translate(477.0,369.875) translate(0,-0.0)">
    <tspan dominant-baseline="middle" dx="0" fill="black" font-size="10.0pt" text-anchor="middle" x="0">Gas Turbine</tspan>
  </text>
  <rect fill="white" height="48.0" stroke="black" stroke-width="2.0" width="96.0" x="585.0" y="345.875"/>
  <text transform="translate(633.0,369.875) translate(0,-7.8125)">
    <tspan dominant-baseline="middle" dx="0" fill="black" font-size="10.0pt" text-anchor="middle" x="0">Electrical</tspan>
    <tspan dominant-baseline="middle" dx="0" dy="1.25em" fill="black" font-size="10.0pt" text-anchor="middle" x="0">Generator</tspan>
  </text>
  <rect fill="white" height="48.0" stroke="black" stroke-width="2.0" width="96.0" x="744.0" y="345.875"/>
  <text transform="translate(792.0,369.875) translate(0,-7.8125)">
    <tspan dominant-baseline="middle" dx="0" fill="black" font-size="10.0pt" font-style="italic" text-anchor="middle" x="0">To</tspan>
    <tspan dominant-baseline="middle" dx="0" dy="1.25em" fill="black" font-size="10.0pt" font-style="italic" text-anchor="middle" x="0">Transformers</tspan>
  </text>
  <rect fill="white" height="48.0" stroke="black" stroke-width="2.0" width="96.0" x="111.0" y="456.875"/>
  <text transform="translate(159.0,480.875) translate(0,-0.0)">
    <tspan dominant-baseline="middle" dx="0" fill="black" font-size="10.0pt" text-anchor="middle" x="0">Exhaust</tspan>
  </text>
  <rect fill="gold" height="48.0" stroke="orangered" stroke-width="2.0" width="96.0" x="429.0" y="456.875"/>
  <text transform="translate(477.0,480.875) translate(0,-7.8125)">
    <tspan dominant-baseline="middle" dx="0" fill="black" font-size="10.0pt" text-anchor="middle" x="0">Steam</tspan>
    <tspan dominant-baseline="middle" dx="0" dy="1.25em" fill="black" font-size="10.0pt" text-anchor="middle" x="0">Generator</tspan>
  </text>
  <rect fill="white" height="48.0" stroke="black" stroke-width="2.0" width="96.0" x="111.0" y="564.875"/>
  <text transform="translate(159.0,588.875) translate(0,-7.8125)">
    <tspan dominant-baseline="middle" dx="0" fill="black" font-size="10.0pt" text-anchor="middle" x="0">Cooling</tspan>
    <tspan dominant-baseline="middle" dx="0" dy="1.25em" fill="black" font-size="10.0pt" text-anchor="middle" x="0">Tower</tspan>
  </text>
  <rect fill="white" height="48.0" stroke="black" stroke-width="2.0" width="96.0" x="270.0" y="564.875"/>
  <text transform="translate(318.0,588.875) translate(0,-0.0)">
    <tspan dominant-baseline="middle" dx="0" fill="black" font-size="10.0pt" text-anchor="middle" x="0">Condenser</tspan>
  </text>
  <rect fill="gold" height="48.0" stroke="orangered" stroke-width="2.0" width="96.0" x="429.0" y="564.875"/>
  <text transform="translate(477.0,588.875) translate(0,-7.8125)">
    <tspan dominant-baseline="middle" dx="0" fill="black" font-size="10.0pt" text-anchor="middle" x="0">Steam</tspan>
    <tspan dominant-baseline="middle" dx="0" dy="1.25em" fill="black" font-size="10.0pt" text-anchor="middle" x="0">Turbine</tspan>
  </text>
  <rect fill="white" height="48.0" stroke="black" stroke-width="2.0" width="96.0" x="585.0" y="564.875"/>
  <text transform="translate(633.0,588.875) translate(0,-7.8125)">
    <tspan dominant-baseline="middle" dx="0" fill="black" font-size="10.0pt" text-anchor="middle" x="0">Electrical</tspan>
    <tspan dominant-baseline="middle" dx="0" dy="1.25em" fill="black" font-size="10.0pt" text-anchor="middle" x="0">Generator</tspan>
  </text>
  <polyline fill="none" points="318.0,100.875 318.0,145.375" stroke="lightyellow" stroke-width="7.0"/>
  <polyline fill="none" points="318.0,100.875 318.0,145.375" stroke="olive" stroke-width="3.0"/>
  <polyline marker-end="url(#id2)" points="318.0,145.375 318.0,152.125" stroke="olive" stroke-width="1"/>
  <polyline fill="none" points="269.0,75.875 238.5,75.875 238.5,275.375 318.0,275.375 318.0,331.375" stroke="lightyellow" stroke-width="7.0"/>
  <polyline fill="none" points="269.0,75.875 238.5,75.875 238.5,275.375 318.0,275.375 318.0,331.375" stroke="olive" stroke-width="3.0"/>
  <polyline marker-end="url(#id2)" points="318.0,331.375 318.0,338.125" stroke="olive" stroke-width="1"/>
  <polyline fill="none" points="477.0,208.875 477.0,314.375 397.5,314.375 397.5,425.375 477.0,425.375 477.0,442.375" stroke="lightyellow" stroke-width="7.0"/>
  <polyline fill="none" points="477.0,394.875 477.0,442.375" stroke="lightyellow" stroke-width="7.0"/>
  <polyline fill="none" points="477.0,208.875 477.0,314.375 397.5,314.375 397.5,425.375 477.0,425.375 477.0,442.375" stroke="orangered" stroke-width="3.0"/>
  <polyline marker-end="url(#id3)" points="477.0,442.375 477.0,449.125" stroke="orangered" stroke-width="1"/>
  <polyline fill="none" points="477.0,394.875 477.0,442.375" stroke="orangered" stroke-width="3.0"/>
  <polyline marker-end="url(#id3)" points="477.0,442.375 477.0,449.125" stroke="orangered" stroke-width="1"/>
  <polyline fill="none" points="49.0,275.375 79.5,275.375 79.5,183.875 96.5,183.875" stroke="lightyellow" stroke-width="7.0"/>
  <polyline fill="none" points="49.0,275.375 79.5,275.375 79.5,369.875 96.5,369.875" stroke="lightyellow" stroke-width="7.0"/>
  <polyline fill="none" points="49.0,275.375 79.5,275.375 79.5,183.875 96.5,183.875" stroke="turquoise" stroke-width="3.0"/>
  <polyline marker-end="url(#id1)" points="96.5,183.875 103.25,183.875" stroke="turquoise" stroke-width="1"/>
  <polyline fill="none" points="49.0,275.375 79.5,275.375 79.5,369.875 96.5,369.875" stroke="turquoise" stroke-width="3.0"/>
  <polyline marker-end="url(#id1)" points="96.5,369.875 103.25,369.875" stroke="turquoise" stroke-width="1"/>
  <polyline fill="none" points="208.0,183.875 255.5,183.875" stroke="lightyellow" stroke-width="7.0"/>
  <polyline fill="none" points="208.0,183.875 255.5,183.875" stroke="turquoise" stroke-width="3.0"/>
  <polyline marker-end="url(#id1)" points="255.5,183.875 262.25,183.875" stroke="turquoise" stroke-width="1"/>
  <polyline fill="none" points="208.0,369.875 255.5,369.875" stroke="lightyellow" stroke-width="7.0"/>
  <polyline fill="none" points="208.0,369.875 255.5,369.875" stroke="turquoise" stroke-width="3.0"/>
  <polyline marker-end="url(#id1)" points="255.5,369.875 262.25,369.875" stroke="turquoise" stroke-width="1"/>
  <polyline fill="none" points="367.0,183.875 414.5,183.875" stroke="lightyellow" stroke-width="7.0"/>
  <polyline fill="none" points="367.0,183.875 414.5,183.875" stroke="orangered" stroke-width="3.0"/>
  <polyline marker-end="url(#id3)" points="414.5,183.875 421.25,183.875" stroke="orangered" stroke-width="1"/>
  <polyline fill="none" points="367.0,369.875 414.5,369.875" stroke="lightyellow" stroke-width="7.0"/>
  <polyline fill="none" points="367.0,369.875 414.5,369.875" stroke="orangered" stroke-width="3.0"/>
  <polyline marker-end="url(#id3)" points="414.5,369.875 421.25,369.875" stroke="orangered" stroke-width="1"/>
  <polyline fill="none" points="526.0,183.875 584.0,183.875" stroke="lightyellow" stroke-width="12.0"/>
  <polyline fill="none" points="526.0,183.875 584.0,183.875" stroke="dimgrey" stroke-dasharray="8 8" stroke-width="8.0"/>
  <polyline fill="none" points="526.0,369.875 584.0,369.875" stroke="lightyellow" stroke-width="12.0"/>
  <polyline fill="none" points="526.0,369.875 584.0,369.875" stroke="dimgrey" stroke-dasharray="8 8" stroke-width="8.0"/>
  <polyline fill="none" points="477.0,505.875 477.0,550.375" stroke="lightyellow" stroke-width="7.0"/>
  <polyline fill="none" points="477.0,505.875 477.0,550.375" stroke="grey" stroke-width="3.0"/>
  <polyline marker-end="url(#id5)" points="477.0,550.375 477.0,557.125" stroke="grey" stroke-width="1"/>
  <polyline fill="none" points="526.0,588.875 584.0,588.875" stroke="lightyellow" stroke-width="12.0"/>
  <polyline fill="none" points="526.0,588.875 584.0,588.875" stroke="dimgrey" stroke-dasharray="8 8" stroke-width="8.0"/>
  <polyline fill="none" points="428.0,588.875 380.5,588.875" stroke="lightyellow" stroke-width="7.0"/>
  <polyline fill="none" points="428.0,588.875 380.5,588.875" stroke="grey" stroke-width="3.0"/>
  <polyline marker-end="url(#id5)" points="380.5,588.875 373.75,588.875" stroke="grey" stroke-width="1"/>
  <polyline fill="none" points="318.0,563.875 318.0,485.375 414.5,485.375" stroke="lightyellow" stroke-width="7.0"/>
  <polyline fill="none" points="318.0,563.875 318.0,485.375 414.5,485.375" stroke="royalblue" stroke-width="3.0"/>
  <polyline marker-end="url(#id6)" points="414.5,485.375 421.25,485.375" stroke="royalblue" stroke-width="1"/>
  <polyline fill="none" points="255.5,588.875 221.5,588.875" stroke="lightyellow" stroke-width="7.0"/>
  <polyline fill="none" points="255.5,588.875 221.5,588.875" stroke="royalblue" stroke-width="3.0"/>
  <polyline marker-end="url(#id6)" points="255.5,588.875 262.25,588.875" stroke="royalblue" stroke-width="1"/>
  <polyline marker-end="url(#id6)" points="221.5,588.875 214.75,588.875" stroke="royalblue" stroke-width="1"/>
  <polyline fill="none" points="682.0,183.875 712.5,183.875 712.5,358.375 729.5,358.375" stroke="lightyellow" stroke-width="7.0"/>
  <polyline fill="none" points="682.0,183.875 712.5,183.875 712.5,358.375 729.5,358.375" stroke="black" stroke-width="3.0"/>
  <polyline marker-end="url(#id7)" points="729.5,358.375 736.25,358.375" stroke="black" stroke-width="1"/>
  <polyline fill="none" points="682.0,369.875 729.5,369.875" stroke="lightyellow" stroke-width="7.0"/>
  <polyline fill="none" points="682.0,369.875 729.5,369.875" stroke="black" stroke-width="3.0"/>
  <polyline marker-end="url(#id7)" points="729.5,369.875 736.25,369.875" stroke="black" stroke-width="1"/>
  <polyline fill="none" points="682.0,588.875 712.5,588.875 712.5,381.375 729.5,381.375" stroke="lightyellow" stroke-width="7.0"/>
  <polyline fill="none" points="682.0,588.875 712.5,588.875 712.5,381.375 729.5,381.375" stroke="black" stroke-width="3.0"/>
  <polyline marker-end="url(#id7)" points="729.5,381.375 736.25,381.375" stroke="black" stroke-width="1"/>
  <polyline fill="none" points="428.0,476.375 221.5,476.375" stroke="lightyellow" stroke-width="7.0"/>
  <polyline fill="none" points="428.0,476.375 221.5,476.375" stroke="orangered" stroke-width="3.0"/>
  <polyline marker-end="url(#id3)" points="221.5,476.375 214.75,476.375" stroke="orangered" stroke-width="1"/>
  <text transform="translate(432.0,16.9375) translate(0,-0.0)">
    <tspan dominant-baseline="middle" dx="0" fill="black" font-size="14.0pt" text-anchor="middle" x="0">Combined Cycle Power Plant</tspan>
  </text>
</svg>
