<?xml version="1.0" encoding="utf-8" ?>
<svg baseProfile="full" height="100%" version="1.1" viewBox="0 0 837.0 696.875" width="100%" xmlns="http://www.w3.org/2000/svg" xmlns:ev="http://www.w3.org/2001/xml-events" xmlns:xlink="http://www.w3.org/1999/xlink">
  <defs>
    <marker id="id1" markerHeight="9" markerUnits="userSpaceOnUse" markerWidth="14" orient="auto" refX="7.0" refY="4.5">
      <polyline fill="turquoise" points="0,0 14,4.5 0,9" stroke-width="0"/>
    </marker>
    <marker id="id2" markerHeight="9" markerUnits="userSpaceOnUse" markerWidth="14" orient="auto" refX="7.0" refY="4.5">
      <polyline fill="olive" points="0,0 14,4.5 0,9" stroke-width="0"/>
    </marker>
    <marker id="id3" markerHeight="9" markerUnits="userSpaceOnUse" markerWidth="14" orient="auto" refX="7.0" refY="4.5">
      <polyline fill="orangered" points="0,0 14,4.5 0,9" stroke-width="0"/>
    </marker>
    <marker id="id4" markerHeight="24" markerUnits="userSpaceOnUse" markerWidth="36" orient="auto" refX="18.0" refY="12.0">
      <polyline fill="dimgrey" points="0,0 36,12.0 0,24" stroke-width="0"/>
    </marker>
    <marker id="id5" markerHeight="9" markerUnits="userSpaceOnUse" markerWidth="14" orient="auto" refX="7.0" refY="4.5">
      <polyline fill="grey" points="0,0 14,4.5 0,9" stroke-width="0"/>
    </marker>
    <marker id="id6" markerHeight="9" markerUnits="userSpaceOnUse" markerWidth="14" orient="auto" refX="7.0" refY="4.5">
      <polyline fill="royalblue" points="0,0 14,4.5 0,9" stroke-width="0"/>
    </marker>
    <marker id="id7" markerHeight="9" markerUnits="userSpaceOnUse" markerWidth="14" orient="auto" refX="7.0" refY="4.5">
      <polyline fill="black" points="0,0 14,4.5 0,9" stroke-width="0"/>
    </marker>
  </defs>
  <rect fill="lightyellow" height="696.875" width="837.0" x="0" y="0"/>
  <rect fill="none" height="696.875" stroke="black" stroke-width="0.0" width="837.0" x="0.0" y="0.0"/>
  <rect fill="white" height="48.0" stroke="black" stroke-width="2.0" width="96.0" x="282.0" y="63.875"/>
  <text transform="translate(330.0,87.875) translate(0,-0.0)">
    <tspan dominant-baseline="middle" dx="0" fill="black" font-size="10.0pt" text-anchor="middle" x="0">Fuel</tspan>
  </text>
  <rect fill="white" height="48.0" stroke="black" stroke-width="2.0" width="96.0" x="123.0" y="171.875"/>
  <text transform="translate(171.0,195.875) translate(0,-0.0)">
    <tspan dominant-baseline="middle" dx="0" fill="black" font-size="10.0pt" text-anchor="middle" x="0">Compressor</tspan>
  </text>
  <rect fill="gold" height="48.0" stroke="orangered" stroke-width="2.0" width="96.0" x="282.0" y="171.875"/>
  <text transform="translate(330.0,195.875) translate(0,-7.8125)">
    <tspan dominant-baseline="middle" dx="0" fill="black" font-size="10.0pt" text-anchor="middle" x="0">Combustion</tspan>
    <tspan dominant-baseline="middle" dx="0" dy="1.25em" fill="black" font-size="10.0pt" text-anchor="middle" x="0">Chamber</tspan>
  </text>
  <rect fill="gold" height="48.0" stroke="orangered" stroke-width="2.0" width="96.0" x="441.0" y="171.875"/>
  <text transform="translate(489.0,195.875) translate(0,-0.0)">
    <tspan dominant-baseline="middle" dx="0" fill="black" font-size="10.0pt" text-anchor="middle" x="0">Gas Turbine</tspan>
  </text>
  <rect fill="white" height="48.0" stroke="black" stroke-width="2.0" width="96.0" x="597.0" y="171.875"/>
  <text transform="translate(645.0,195.875) translate(0,-7.8125)">
    <tspan dominant-baseline="middle" dx="0" fill="black" font-size="10.0pt" text-anchor="middle" x="0">Electrical</tspan>
    <tspan dominant-baseline="middle" dx="0" dy="1.25em" fill="black" font-size="10.0pt" text-anchor="middle" x="0">Generator</tspan>
  </text>
  <rect fill="white" height="489.0" stroke="black" stroke-width="2.0" width="48.0" x="753.0" y="171.875"/>
  <text transform="translate(777.0,416.375) translate(-0.0,0) rotate(-90)">
    <tspan dominant-baseline="middle" dx="0" fill="black" font-size="10.0pt" font-style="italic" text-anchor="middle" x="0">To Electrical Transformers</tspan>
  </text>
  <rect fill="white" height="9.0" stroke="none" stroke-width="2.0" width="24.0" x="36.0" y="302.375"/>
  <text transform="translate(48.0,306.875) translate(0,-0.0)">
    <tspan dominant-baseline="middle" dx="0" fill="black" font-size="10.0pt" text-anchor="middle" x="0">Air</tspan>
  </text>
  <rect fill="white" height="48.0" stroke="black" stroke-width="2.0" width="96.0" x="123.0" y="393.875"/>
  <text transform="translate(171.0,417.875) translate(0,-0.0)">
    <tspan dominant-baseline="middle" dx="0" fill="black" font-size="10.0pt" text-anchor="middle" x="0">Compressor</tspan>
  </text>
  <rect fill="gold" height="48.0" stroke="orangered" stroke-width="2.0" width="96.0" x="282.0" y="393.875"/>
  <text transform="translate(330.0,417.875) translate(0,-7.8125)">
    <tspan dominant-baseline="middle" dx="0" fill="black" font-size="10.0pt" text-anchor="middle" x="0">Combustion</tspan>
    <tspan dominant-baseline="middle" dx="0" dy="1.25em" fill="black" font-size="10.0pt" text-anchor="middle" x="0">Chamber</tspan>
  </text>
  <rect fill="gold" height="48.0" stroke="orangered" stroke-width="2.0" width="96.0" x="441.0" y="393.875"/>
  <text transform="translate(489.0,417.875) translate(0,-0.0)">
    <tspan dominant-baseline="middle" dx="0" fill="black" font-size="10.0pt" text-anchor="middle" x="0">Gas Turbine</tspan>
  </text>
  <rect fill="white" height="48.0" stroke="black" stroke-width="2.0" width="96.0" x="597.0" y="393.875"/>
  <text transform="translate(645.0,417.875) translate(0,-7.8125)">
    <tspan dominant-baseline="middle" dx="0" fill="black" font-size="10.0pt" text-anchor="middle" x="0">Electrical</tspan>
    <tspan dominant-baseline="middle" dx="0" dy="1.25em" fill="black" font-size="10.0pt" text-anchor="middle" x="0">Generator</tspan>
  </text>
  <rect fill="white" height="48.0" stroke="black" stroke-width="2.0" width="96.0" x="123.0" y="504.875"/>
  <text transform="translate(171.0,528.875) translate(0,-0.0)">
    <tspan dominant-baseline="middle" dx="0" fill="black" font-size="10.0pt" text-anchor="middle" x="0">Exhaust</tspan>
  </text>
  <rect fill="gold" height="48.0" stroke="orangered" stroke-width="2.0" width="96.0" x="441.0" y="504.875"/>
  <text transform="translate(489.0,528.875) translate(0,-7.8125)">
    <tspan dominant-baseline="middle" dx="0" fill="black" font-size="10.0pt" text-anchor="middle" x="0">Steam</tspan>
    <tspan dominant-baseline="middle" dx="0" dy="1.25em" fill="black" font-size="10.0pt" text-anchor="middle" x="0">Generator</tspan>
  </text>
  <rect fill="white" height="48.0" stroke="black" stroke-width="2.0" width="96.0" x="123.0" y="612.875"/>
  <text transform="translate(171.0,636.875) translate(0,-7.8125)">
    <tspan dominant-baseline="middle" dx="0" fill="black" font-size="10.0pt" text-anchor="middle" x="0">Cooling</tspan>
    <tspan dominant-baseline="middle" dx="0" dy="1.25em" fill="black" font-size="10.0pt" text-anchor="middle" x="0">Tower</tspan>
  </text>
  <rect fill="white" height="48.0" stroke="black" stroke-width="2.0" width="96.0" x="282.0" y="612.875"/>
  <text transform="translate(330.0,636.875) translate(0,-0.0)">
    <tspan dominant-baseline="middle" dx="0" fill="black" font-size="10.0pt" text-anchor="middle" x="0">Condenser</tspan>
  </text>
  <rect fill="gold" height="48.0" stroke="orangered" stroke-width="2.0" width="96.0" x="441.0" y="612.875"/>
  <text transform="translate(489.0,636.875) translate(0,-7.8125)">
    <tspan dominant-baseline="middle" dx="0" fill="black" font-size="10.0pt" text-anchor="middle" x="0">Steam</tspan>
    <tspan dominant-baseline="middle" dx="0" dy="1.25em" fill="black" font-size="10.0pt" text-anchor="middle" x="0">Turbine</tspan>
  </text>
  <rect fill="white" height="48.0" stroke="black" stroke-width="2.0" width="96.0" x="597.0" y="612.875"/>
  <text transform="translate(645.0,636.875) translate(0,-7.8125)">
    <tspan dominant-baseline="middle" dx="0" fill="black" font-size="10.0pt" text-anchor="middle" x="0">Electrical</tspan>
    <tspan dominant-baseline="middle" dx="0" dy="1.25em" fill="black" font-size="10.0pt" text-anchor="middle" x="0">Generator</tspan>
  </text>
  <polyline fill="none" points="330.0,112.875 330.0,156.875" stroke="lightyellow" stroke-width="7.0"/>
  <polyline fill="none" points="330.0,112.875 330.0,156.875" stroke="olive" stroke-width="3.0"/>
  <polyline marker-end="url(#id2)" points="330.0,156.875 330.0,163.875" stroke="olive" stroke-width="1"/>
  <polyline fill="none" points="281.0,87.875 250.5,87.875 250.5,251.375 330.0,251.375 330.0,378.875" stroke="lightyellow" stroke-width="7.0"/>
  <polyline fill="none" points="281.0,87.875 250.5,87.875 250.5,251.375 330.0,251.375 330.0,378.875" stroke="olive" stroke-width="3.0"/>
  <polyline marker-end="url(#id2)" points="330.0,378.875 330.0,385.875" stroke="olive" stroke-width="1"/>
  <polyline fill="none" points="489.0,220.875 489.0,362.375 409.5,362.375 409.5,473.375 489.0,473.375 489.0,489.875" stroke="lightyellow" stroke-width="7.0"/>
  <polyline fill="none" points="489.0,442.875 489.0,489.875" stroke="lightyellow" stroke-width="7.0"/>
  <polyline fill="none" points="489.0,220.875 489.0,362.375 409.5,362.375 409.5,473.375 489.0,473.375 489.0,489.875" stroke="orangered" stroke-width="3.0"/>
  <polyline marker-end="url(#id3)" points="489.0,489.875 489.0,496.875" stroke="orangered" stroke-width="1"/>
  <polyline fill="none" points="489.0,442.875 489.0,489.875" stroke="orangered" stroke-width="3.0"/>
  <polyline marker-end="url(#id3)" points="489.0,489.875 489.0,496.875" stroke="orangered" stroke-width="1"/>
  <polyline fill="none" points="61.0,306.875 91.5,306.875 91.5,195.875 108.0,195.875" stroke="lightyellow" stroke-width="7.0"/>
  <polyline fill="none" points="61.0,306.875 91.5,306.875 91.5,417.875 108.0,417.875" stroke="lightyellow" stroke-width="7.0"/>
  <polyline fill="none" points="61.0,306.875 91.5,306.875 91.5,195.875 108.0,195.875" stroke="turquoise" stroke-width="3.0"/>
  <polyline marker-end="url(#id1)" points="108.0,195.875 115.0,195.875" stroke="turquoise" stroke-width="1"/>
  <polyline fill="none" points="61.0,306.875 91.5,306.875 91.5,417.875 108.0,417.875" stroke="turquoise" stroke-width="3.0"/>
  <polyline marker-end="url(#id1)" points="108.0,417.875 115.0,417.875" stroke="turquoise" stroke-width="1"/>
  <polyline fill="none" points="220.0,195.875 267.0,195.875" stroke="lightyellow" stroke-width="7.0"/>
  <polyline fill="none" points="220.0,195.875 267.0,195.875" stroke="turquoise" stroke-width="3.0"/>
  <polyline marker-end="url(#id1)" points="267.0,195.875 274.0,195.875" stroke="turquoise" stroke-width="1"/>
  <polyline fill="none" points="220.0,417.875 267.0,417.875" stroke="lightyellow" stroke-width="7.0"/>
  <polyline fill="none" points="220.0,417.875 267.0,417.875" stroke="turquoise" stroke-width="3.0"/>
  <polyline marker-end="url(#id1)" points="267.0,417.875 274.0,417.875" stroke="turquoise" stroke-width="1"/>
  <polyline fill="none" points="379.0,195.875 426.0,195.875" stroke="lightyellow" stroke-width="7.0"/>
  <polyline fill="none" points="379.0,195.875 426.0,195.875" stroke="orangered" stroke-width="3.0"/>
  <polyline marker-end="url(#id3)" points="426.0,195.875 433.0,195.875" stroke="orangered" stroke-width="1"/>
  <polyline fill="none" points="379.0,417.875 426.0,417.875" stroke="lightyellow" stroke-width="7.0"/>
  <polyline fill="none" points="379.0,417.875 426.0,417.875" stroke="orangered" stroke-width="3.0"/>
  <polyline marker-end="url(#id3)" points="426.0,417.875 433.0,417.875" stroke="orangered" stroke-width="1"/>
  <polyline fill="none" points="538.0,195.875 596.0,195.875" stroke="lightyellow" stroke-width="12.0"/>
  <polyline fill="none" points="538.0,195.875 596.0,195.875" stroke="dimgrey" stroke-dasharray="8 8" stroke-width="8.0"/>
  <polyline fill="none" points="538.0,417.875 596.0,417.875" stroke="lightyellow" stroke-width="12.0"/>
  <polyline fill="none" points="538.0,417.875 596.0,417.875" stroke="dimgrey" stroke-dasharray="8 8" stroke-width="8.0"/>
  <polyline fill="none" points="489.0,553.875 489.0,597.875" stroke="lightyellow" stroke-width="7.0"/>
  <polyline fill="none" points="489.0,553.875 489.0,597.875" stroke="grey" stroke-width="3.0"/>
  <polyline marker-end="url(#id5)" points="489.0,597.875 489.0,604.875" stroke="grey" stroke-width="1"/>
  <polyline fill="none" points="538.0,636.875 596.0,636.875" stroke="lightyellow" stroke-width="12.0"/>
  <polyline fill="none" points="538.0,636.875 596.0,636.875" stroke="dimgrey" stroke-dasharray="8 8" stroke-width="8.0"/>
  <polyline fill="none" points="440.0,636.875 393.0,636.875" stroke="lightyellow" stroke-width="7.0"/>
  <polyline fill="none" points="440.0,636.875 393.0,636.875" stroke="grey" stroke-width="3.0"/>
  <polyline marker-end="url(#id5)" points="393.0,636.875 386.0,636.875" stroke="grey" stroke-width="1"/>
  <polyline fill="none" points="330.0,611.875 330.0,533.375 426.0,533.375" stroke="lightyellow" stroke-width="7.0"/>
  <polyline fill="none" points="330.0,611.875 330.0,533.375 426.0,533.375" stroke="royalblue" stroke-width="3.0"/>
  <polyline marker-end="url(#id6)" points="426.0,533.375 433.0,533.375" stroke="royalblue" stroke-width="1"/>
  <polyline fill="none" points="267.0,636.875 234.0,636.875" stroke="lightyellow" stroke-width="7.0"/>
  <polyline fill="none" points="267.0,636.875 234.0,636.875" stroke="royalblue" stroke-width="3.0"/>
  <polyline marker-end="url(#id6)" points="267.0,636.875 274.0,636.875" stroke="royalblue" stroke-width="1"/>
  <polyline marker-end="url(#id6)" points="234.0,636.875 227.0,636.875" stroke="royalblue" stroke-width="1"/>
  <polyline fill="none" points="694.0,195.875 738.0,195.875" stroke="lightyellow" stroke-width="7.0"/>
  <polyline fill="none" points="694.0,195.875 738.0,195.875" stroke="black" stroke-width="3.0"/>
  <polyline marker-end="url(#id7)" points="738.0,195.875 745.0,195.875" stroke="black" stroke-width="1"/>
  <polyline fill="none" points="694.0,417.875 738.0,417.875" stroke="lightyellow" stroke-width="7.0"/>
  <polyline fill="none" points="694.0,417.875 738.0,417.875" stroke="black" stroke-width="3.0"/>
  <polyline marker-end="url(#id7)" points="738.0,417.875 745.0,417.875" stroke="black" stroke-width="1"/>
  <polyline fill="none" points="694.0,636.875 738.0,636.875" stroke="lightyellow" stroke-width="7.0"/>
  <polyline fill="none" points="694.0,636.875 738.0,636.875" stroke="black" stroke-width="3.0"/>
  <polyline marker-end="url(#id7)" points="738.0,636.875 745.0,636.875" stroke="black" stroke-width="1"/>
  <polyline fill="none" points="440.0,524.375 234.0,524.375" stroke="lightyellow" stroke-width="7.0"/>
  <polyline fill="none" points="440.0,524.375 234.0,524.375" stroke="orangered" stroke-width="3.0"/>
  <polyline marker-end="url(#id3)" points="234.0,524.375 227.0,524.375" stroke="orangered" stroke-width="1"/>
  <text transform="translate(418.5,16.9375) translate(0,-0.0)">
    <tspan dominant-baseline="middle" dx="0" fill="black" font-size="14.0pt" text-anchor="middle" x="0">Combined Cycle Power Plant</tspan>
  </text>
</svg>
