<?xml version="1.0" encoding="utf-8" ?>
<svg baseProfile="full" height="100%" version="1.1" viewBox="0 0 711.0 737.875" width="100%" xmlns="http://www.w3.org/2000/svg" xmlns:ev="http://www.w3.org/2001/xml-events" xmlns:xlink="http://www.w3.org/1999/xlink">
  <defs>
    <marker id="id15" markerHeight="7" markerUnits="userSpaceOnUse" markerWidth="10" orient="auto" refX="5.0" refY="3.5">
      <polyline fill="red" points="0,0 10,3.5 0,7" stroke-width="0"/>
    </marker>
    <marker id="id16" markerHeight="7" markerUnits="userSpaceOnUse" markerWidth="10" orient="auto" refX="5.0" refY="3.5">
      <polyline fill="blue" points="0,0 10,3.5 0,7" stroke-width="0"/>
    </marker>
    <marker id="id17" markerHeight="10" markerUnits="userSpaceOnUse" markerWidth="16" orient="auto" refX="8.0" refY="5.0">
      <polyline fill="green" points="0,0 16,5.0 0,10" stroke-width="0"/>
    </marker>
    <marker id="id18" markerHeight="64" markerUnits="userSpaceOnUse" markerWidth="32" orient="auto" refX="16.0" refY="32.0">
      <polyline fill="lightgray" points="0,0 32,32.0 0,64" stroke-width="0"/>
    </marker>
    <marker id="id19" markerHeight="10" markerUnits="userSpaceOnUse" markerWidth="16" orient="auto" refX="8.0" refY="5.0">
      <polyline fill="purple" points="0,0 16,5.0 0,10" stroke-width="0"/>
    </marker>
  </defs>
  <rect fill="none" height="737.875" width="711.0" x="0.0" y="0.0"/>
  <rect fill="none" height="737.875" stroke="black" stroke-width="0.0" width="711.0" x="0.0" y="0.0"/>
  <rect fill="white" height="64.0" width="96.0" x="12.0" y="263.875"/>
  <rect fill="none" height="62.0" stroke="black" stroke-width="2.0" width="94.0" x="13.0" y="264.875"/>
  <rect fill="lightyellow" height="527.0" width="314.0" x="170.0" y="78.875"/>
  <rect fill="none" height="526.0" stroke="orange" stroke-dasharray="2 4" stroke-width="1.0" width="313.0" x="170.5" y="79.375"/>
  <rect fill="white" height="60.0" width="96.0" x="179.0" y="116.875"/>
  <rect fill="none" height="58.0" stroke="black" stroke-width="2.0" width="94.0" x="180.0" y="117.875"/>
  <rect fill="white" height="60.0" width="96.0" x="179.0" y="265.875"/>
  <rect fill="none" height="58.0" stroke="black" stroke-width="2.0" width="94.0" x="180.0" y="266.875"/>
  <rect fill="white" height="60.0" width="96.0" x="179.0" y="414.875"/>
  <rect fill="none" height="58.0" stroke="black" stroke-width="2.0" width="94.0" x="180.0" y="415.875"/>
  <rect fill="white" height="60.0" width="96.0" x="379.0" y="414.875"/>
  <rect fill="none" height="58.0" stroke="black" stroke-width="2.0" width="94.0" x="380.0" y="415.875"/>
  <rect fill="navy" height="60.0" width="96.0" x="379.0" y="536.875"/>
  <rect fill="none" height="52.0" stroke="purple" stroke-width="8.0" width="88.0" x="383.0" y="540.875"/>
  <rect fill="white" height="60.0" width="96.0" x="531.0" y="265.875"/>
  <rect fill="none" height="58.0" stroke="black" stroke-width="2.0" width="94.0" x="532.0" y="266.875"/>
  <rect fill="white" height="60.0" width="615.0" x="12.0" y="653.875"/>
  <rect fill="none" height="58.0" stroke="black" stroke-width="2.0" width="613.0" x="13.0" y="654.875"/>
  <rect fill="white" height="0.0" width="0.0" x="331.0" y="683.875"/>
  <rect fill="none" height="-2.0" stroke="black" stroke-width="2.0" width="-2.0" x="332.0" y="684.875"/>
  <rect fill="white" height="480.0" width="48.0" x="651.0" y="116.875"/>
  <rect fill="none" height="478.0" stroke="black" stroke-width="2.0" width="46.0" x="652.0" y="117.875"/>
  <rect fill="white" height="60.0" width="96.0" x="379.0" y="116.875"/>
  <rect fill="none" height="58.0" stroke="black" stroke-width="2.0" width="94.0" x="380.0" y="117.875"/>
  <rect fill="white" height="60.0" width="96.0" x="379.0" y="265.875"/>
  <rect fill="none" height="58.0" stroke="black" stroke-width="2.0" width="94.0" x="380.0" y="266.875"/>
  <rect fill="white" height="60.0" width="96.0" x="179.0" y="536.875"/>
  <rect fill="none" height="58.0" stroke="black" stroke-width="2.0" width="94.0" x="180.0" y="537.875"/>
  <polyline fill="none" points="108.0,267.875 135.0,267.875 135.0,146.875 170.0,146.875" stroke="red" stroke-width="2.0"/>
  <polyline marker-end="url(#id15)" points="169.0,146.875 174.0,146.875" stroke="red" stroke-width="0"/>
  <polyline fill="none" points="108.0,275.875 143.0,275.875 143.0,207.875 302.0,207.875 302.0,146.875 370.0,146.875" stroke="red" stroke-width="2.0"/>
  <polyline marker-end="url(#id15)" points="369.0,146.875 374.0,146.875" stroke="red" stroke-width="0"/>
  <polyline fill="none" points="108.0,291.875 170.0,291.875" stroke="red" stroke-width="2.0"/>
  <polyline marker-end="url(#id15)" points="169.0,291.875 174.0,291.875" stroke="red" stroke-width="0"/>
  <polyline fill="none" points="108.0,283.875 151.0,283.875 151.0,215.875 302.0,215.875 302.0,291.875 370.0,291.875" stroke="red" stroke-width="2.0"/>
  <polyline marker-end="url(#id15)" points="369.0,291.875 374.0,291.875" stroke="red" stroke-width="0"/>
  <polyline fill="none" points="108.0,315.875 135.0,315.875 135.0,383.875 222.5,383.875 222.5,405.875" stroke="red" stroke-width="2.0"/>
  <polyline marker-end="url(#id15)" points="222.5,404.875 222.5,409.875" stroke="red" stroke-width="0"/>
  <polyline fill="none" points="108.0,299.875 151.0,299.875 151.0,367.875 302.0,367.875 302.0,448.875 370.0,448.875" stroke="red" stroke-width="2.0"/>
  <polyline marker-end="url(#id15)" points="369.0,448.875 374.0,448.875" stroke="red" stroke-width="0"/>
  <polyline fill="none" points="108.0,323.875 127.0,323.875 127.0,505.875 231.0,505.875 231.0,527.875" stroke="red" stroke-width="2.0"/>
  <polyline marker-end="url(#id15)" points="231.0,526.875 231.0,531.875" stroke="red" stroke-width="0"/>
  <polyline fill="none" points="108.0,307.875 143.0,307.875 143.0,375.875 294.0,375.875 294.0,566.875 370.0,566.875" stroke="red" stroke-width="2.0"/>
  <polyline marker-end="url(#id15)" points="369.0,566.875 374.0,566.875" stroke="red" stroke-width="0"/>
  <polyline fill="none" points="531.0,299.875 503.0,299.875 503.0,146.875 484.0,146.875" stroke="blue" stroke-width="2.0"/>
  <polyline marker-end="url(#id16)" points="485.0,146.875 480.0,146.875" stroke="blue" stroke-width="0"/>
  <polyline fill="none" points="531.0,299.875 503.0,299.875 503.0,232.875 360.0,232.875 360.0,299.875 284.0,299.875" stroke="blue" stroke-width="2.0"/>
  <polyline marker-end="url(#id16)" points="285.0,299.875 280.0,299.875" stroke="blue" stroke-width="0"/>
  <polyline fill="none" points="531.0,299.875 484.0,299.875" stroke="blue" stroke-width="2.0"/>
  <polyline marker-end="url(#id16)" points="485.0,299.875 480.0,299.875" stroke="blue" stroke-width="0"/>
  <polyline fill="none" points="531.0,299.875 503.0,299.875 503.0,367.875 360.0,367.875 360.0,440.375 284.0,440.375" stroke="blue" stroke-width="2.0"/>
  <polyline marker-end="url(#id16)" points="285.0,440.375 280.0,440.375" stroke="blue" stroke-width="0"/>
  <polyline fill="none" points="531.0,299.875 503.0,299.875 503.0,367.875 427.0,367.875 427.0,405.875" stroke="blue" stroke-width="2.0"/>
  <polyline marker-end="url(#id16)" points="427.0,404.875 427.0,409.875" stroke="blue" stroke-width="0"/>
  <polyline fill="none" points="531.0,299.875 503.0,299.875 503.0,505.875 427.0,505.875 427.0,527.875" stroke="blue" stroke-width="2.0"/>
  <polyline marker-end="url(#id16)" points="427.0,526.875 427.0,531.875" stroke="blue" stroke-width="0"/>
  <polyline fill="none" points="60.0,248.875 60.0,47.375 579.0,47.375 579.0,250.875" stroke="green" stroke-dasharray="4 4" stroke-width="3.0"/>
  <polyline marker-end="url(#id17)" points="60.0,247.875 60.0,255.875" stroke="green" stroke-width="0"/>
  <polyline marker-end="url(#id17)" points="579.0,249.875 579.0,257.875" stroke="green" stroke-width="0"/>
  <polyline fill="none" points="60.0,653.875 60.0,358.875" stroke="lightgray" stroke-width="32.0"/>
  <polyline marker-end="url(#id18)" points="60.0,359.875 60.0,343.875" stroke="lightgray" stroke-width="0"/>
  <polyline fill="none" points="331.0,653.875 331.0,636.875" stroke="lightgray" stroke-width="32.0"/>
  <polyline marker-end="url(#id18)" points="331.0,637.875 331.0,621.875" stroke="lightgray" stroke-width="0"/>
  <polyline fill="none" points="579.0,653.875 579.0,356.875" stroke="lightgray" stroke-width="32.0"/>
  <polyline marker-end="url(#id18)" points="579.0,357.875 579.0,341.875" stroke="lightgray" stroke-width="0"/>
  <polyline fill="none" points="651.0,146.875 511.5,146.875 511.5,224.375 231.0,224.375 231.0,250.875" stroke="#FDF" stroke-width="7.0"/>
  <polyline fill="none" points="651.0,146.875 511.5,146.875 511.5,224.375 231.0,224.375 231.0,250.875" stroke="purple" stroke-width="3.0"/>
  <polyline marker-end="url(#id19)" points="231.0,249.875 231.0,257.875" stroke="purple" stroke-width="0"/>
  <polyline fill="none" points="651.0,448.875 511.5,448.875 511.5,359.375 231.0,359.375 231.0,399.875" stroke="#FDF" stroke-width="7.0"/>
  <polyline fill="none" points="651.0,448.875 511.5,448.875 511.5,359.375 231.0,359.375 231.0,399.875" stroke="purple" stroke-width="3.0"/>
  <polyline marker-end="url(#id19)" points="231.0,398.875 231.0,406.875" stroke="purple" stroke-width="0"/>
  <text transform="translate(60.0,295.875) translate(0,-12.5)">
    <tspan dominant-baseline="middle" dx="0" fill="black" font-family="Arial" font-size="8.0pt" text-anchor="middle" x="0">Block size is</tspan>
    <tspan dominant-baseline="middle" dx="0" dy="1.25em" fill="black" font-family="Arial" font-size="8.0pt" text-anchor="middle" x="0">adjusted</tspan>
    <tspan dominant-baseline="middle" dx="0" dy="1.25em" fill="black" font-family="Arial" font-size="8.0pt" text-anchor="middle" x="0">to fit the lines.</tspan>
  </text>
  <text transform="translate(327.0,96.375) translate(0,-6.25)">
    <tspan dominant-baseline="middle" dx="0" fill="black" font-family="Arial" font-size="8.0pt" text-anchor="middle" x="0">This block is used as a frame around other blocks.</tspan>
    <tspan dominant-baseline="middle" dx="0" dy="1.25em" fill="black" font-family="Arial" font-size="8.0pt" text-anchor="middle" x="0">The green line above has to go around it.</tspan>
  </text>
  <text transform="translate(227.0,146.875) translate(0,-12.5)">
    <tspan dominant-baseline="middle" dx="0" fill="black" font-family="Arial" font-size="8.0pt" text-anchor="middle" x="0">Connections</tspan>
    <tspan dominant-baseline="middle" dx="0" dy="1.25em" fill="black" font-family="Arial" font-size="8.0pt" text-anchor="middle" x="0">try to avoid</tspan>
    <tspan dominant-baseline="middle" dx="0" dy="1.25em" fill="black" font-family="Arial" font-size="8.0pt" text-anchor="middle" x="0">each other.</tspan>
  </text>
  <text transform="translate(227.0,295.875) translate(0,-12.5)">
    <tspan dominant-baseline="middle" dx="0" fill="black" font-family="Arial" font-size="8.0pt" text-anchor="middle" x="0">You can set the</tspan>
    <tspan dominant-baseline="middle" dx="0" dy="1.25em" fill="black" font-family="Arial" font-size="8.0pt" text-anchor="middle" x="0">priority of</tspan>
    <tspan dominant-baseline="middle" dx="0" dy="1.25em" fill="black" font-family="Arial" font-size="8.0pt" text-anchor="middle" x="0">lines &amp; blocks.</tspan>
  </text>
  <text transform="translate(227.0,444.875) translate(0,-12.5)">
    <tspan dominant-baseline="middle" dx="0" fill="black" font-family="Arial" font-size="8.0pt" text-anchor="middle" x="0">You can set</tspan>
    <tspan dominant-baseline="middle" dx="0" dy="1.25em" fill="black" font-family="Arial" font-size="8.0pt" text-anchor="middle" x="0">the size of</tspan>
    <tspan dominant-baseline="middle" dx="0" dy="1.25em" fill="black" font-family="Arial" font-size="8.0pt" text-anchor="middle" x="0">lines &amp; arrows.</tspan>
  </text>
  <text transform="translate(427.0,444.875) translate(0,-12.5)">
    <tspan dominant-baseline="middle" dx="0" fill="black" font-family="Arial" font-size="8.0pt" text-anchor="middle" x="0">You can draw</tspan>
    <tspan dominant-baseline="middle" dx="0" dy="1.25em" fill="black" font-family="Arial" font-size="8.0pt" text-anchor="middle" x="0">a buffer</tspan>
    <tspan dominant-baseline="middle" dx="0" dy="1.25em" fill="black" font-family="Arial" font-size="8.0pt" text-anchor="middle" x="0">around lines.</tspan>
  </text>
  <text transform="translate(427.0,566.875) translate(0,-12.5)">
    <tspan dominant-baseline="middle" dx="0" fill="white" font-family="Arial" font-size="8.0pt" font-weight="bold" text-anchor="middle" x="0">The outline</tspan>
    <tspan dominant-baseline="middle" dx="0" dy="1.25em" fill="white" font-family="Arial" font-size="8.0pt" font-weight="bold" text-anchor="middle" x="0">is drawn in-</tspan>
    <tspan dominant-baseline="middle" dx="0" dy="1.25em" fill="white" font-family="Arial" font-size="8.0pt" font-weight="bold" text-anchor="middle" x="0">side the block.</tspan>
  </text>
  <text transform="translate(579.0,295.875) translate(0,-6.25)">
    <tspan dominant-baseline="middle" dx="0" fill="black" font-family="Arial" font-size="8.0pt" text-anchor="middle" x="0">Connections</tspan>
    <tspan dominant-baseline="middle" dx="0" dy="1.25em" fill="black" font-family="Arial" font-size="8.0pt" text-anchor="middle" x="0">can be grouped.</tspan>
  </text>
  <text transform="translate(319.5,683.875) translate(0,-7.8125)">
    <tspan dominant-baseline="middle" dx="0" fill="black" font-family="Arial" font-size="10.0pt" font-style="italic" text-anchor="middle" x="0">You can create blocks that span many cells,</tspan>
    <tspan dominant-baseline="middle" dx="0" dy="1.25em" fill="black" font-family="Arial" font-size="10.0pt" font-style="italic" text-anchor="middle" x="0">and still be able to aim connections at specific cells in them.</tspan>
  </text>
  <text transform="translate(675.0,356.875) translate(-0.0,0) rotate(-90)">
    <tspan dominant-baseline="middle" dx="0" fill="black" font-family="Arial" font-size="10.0pt" font-style="italic" text-anchor="middle" x="0">You can change the orientation of text.</tspan>
  </text>
  <text transform="translate(355.5,16.9375) translate(0,-0.0)">
    <tspan dominant-baseline="middle" dx="0" fill="black" font-family="Arial" font-size="14.0pt" text-anchor="middle" x="0">Capabilities Demonstration</tspan>
  </text>
</svg>
